<svg viewBox="0 0 24 24" xmlns="http://www.w3.org/2000/svg"><path d="m0 0h24v24h-24z" fill="#fff" opacity="0" transform="matrix(-1 0 0 -1 24 24)"/><g fill="#6CB18C"><path d="m12.94 22h-1.89a1.68 1.68 0 0 1 -1.68-1.68v-1.09a.34.34 0 0 0 -.22-.29.38.38 0 0 0 -.41 0l-.74.8a1.67 1.67 0 0 1 -2.37 0l-1.37-1.34a1.66 1.66 0 0 1 -.5-1.19 1.72 1.72 0 0 1 .5-1.21l.74-.74a.34.34 0 0 0 0-.37c-.06-.15-.16-.26-.3-.26h-1.02a1.69 1.69 0 0 1 -1.68-1.69v-1.89a1.68 1.68 0 0 1 1.68-1.68h1.09a.34.34 0 0 0 .29-.22.38.38 0 0 0 0-.41l-.8-.74a1.67 1.67 0 0 1 0-2.37l1.34-1.37a1.65 1.65 0 0 1 1.18-.5 1.72 1.72 0 0 1 1.22.5l.74.74a.34.34 0 0 0 .37 0c.15-.06.26-.16.26-.3v-1.02a1.69 1.69 0 0 1 1.69-1.68h1.94a1.68 1.68 0 0 1 1.68 1.68v1.09a.34.34 0 0 0 .22.29.38.38 0 0 0 .41 0l.69-.8a1.67 1.67 0 0 1 2.37 0l1.37 1.34a1.67 1.67 0 0 1 .5 1.19 1.63 1.63 0 0 1 -.5 1.21l-.74.74a.34.34 0 0 0 0 .37c.06.15.16.26.3.26h1.09a1.69 1.69 0 0 1 1.61 1.69v1.94a1.68 1.68 0 0 1 -1.68 1.68h-1.09a.34.34 0 0 0 -.29.22.34.34 0 0 0 0 .37l.77.77a1.67 1.67 0 0 1 0 2.37l-1.31 1.33a1.65 1.65 0 0 1 -1.18.5 1.72 1.72 0 0 1 -1.19-.5l-.77-.74a.34.34 0 0 0 -.37 0c-.15.06-.26.16-.26.3v1.09a1.69 1.69 0 0 1 -1.69 1.61zm-1.57-2h1.26v-.77a2.33 2.33 0 0 1 1.46-2.14 2.36 2.36 0 0 1 2.59.47l.54.54.88-.88-.54-.55a2.34 2.34 0 0 1 -.48-2.56 2.33 2.33 0 0 1 2.14-1.45h.78v-1.29h-.77a2.33 2.33 0 0 1 -2.14-1.46 2.36 2.36 0 0 1 .47-2.59l.54-.54-.88-.88-.55.54a2.39 2.39 0 0 1 -4-1.67v-.77h-1.3v.77a2.33 2.33 0 0 1 -1.46 2.14 2.36 2.36 0 0 1 -2.59-.47l-.54-.54-.88.88.54.55a2.39 2.39 0 0 1 -1.67 4h-.77v1.26h.77a2.33 2.33 0 0 1 2.14 1.46 2.36 2.36 0 0 1 -.47 2.59l-.54.54.88.88.55-.54a2.39 2.39 0 0 1 4 1.67z"/><path d="m12 15.5a3.5 3.5 0 1 1 3.5-3.5 3.5 3.5 0 0 1 -3.5 3.5zm0-5a1.5 1.5 0 1 0 1.5 1.5 1.5 1.5 0 0 0 -1.5-1.5z"/></g></svg>