<?xml version="1.0" encoding="UTF-8" standalone="no"?>
<!-- Created with Inkscape (http://www.inkscape.org/) -->

<svg
  width="74.044174mm"
  height="83.556175mm"
  viewBox="0 0 74.044174 83.556175"
  version="1.1"
  id="svg10955"
  xmlSpace="preserve"
  xmlns="http://www.w3.org/2000/svg"
  xmlnsSvg="http://www.w3.org/2000/svg"><defs
  id="defs10952" /><g
  id="layer1"
  transform="translate(-227.64643,-196.86642)"><g
    id="g13093"><path
        id="path28134"
        style="fill:#e6fdd3;fill-opacity:1;stroke-width:2.26589;stroke-linecap:round;stroke-linejoin:round"
        d="m 246.15748,211.33843 a 37.022083,37.022083 0 0 1 50.5731,13.55103 37.022083,37.022083 0 0 1 -13.55102,50.57311 37.022083,37.022083 0 0 1 -50.57311,-13.55103 37.022083,37.022083 0 0 1 13.55103,-50.57311 z" /><path
        id="path27741"
        style="fill:#94e299;fill-opacity:1;stroke:none;stroke-width:0.327173;stroke-linecap:round;stroke-linejoin:round"
        d="m 248.47147,224.11965 c -0.12121,0.92909 -1.01105,1.57904 -1.01105,1.57904 0,0 -0.6934,-0.85641 -0.57228,-1.78552 0.12122,-0.92909 1.01104,-1.57903 1.01104,-1.57903 0,0 0.69344,0.85642 0.57229,1.78551 z" /><path
        style="fill:none;fill-opacity:1;stroke:#c8f0ac;stroke-width:0.831361;stroke-linecap:round;stroke-linejoin:round;stroke-dasharray:none;stroke-opacity:1"
        d="m 244.87753,223.04872 c 2.48597,2.34825 4.97166,4.69623 6.79671,7.03601 1.82505,2.33977 2.98954,4.67118 4.15389,7.00232"
        id="path27743" /><path
        id="path27745"
        style="fill:#94e299;fill-opacity:1;stroke:none;stroke-width:0.327173;stroke-linecap:round;stroke-linejoin:round"
        d="m 245.97043,224.66205 c 0.9291,0.12121 1.57905,1.01104 1.57905,1.01104 0,0 -0.8564,0.69343 -1.78551,0.57229 -0.92909,-0.12122 -1.57903,-1.01104 -1.57903,-1.01104 0,0 0.85642,-0.69344 1.78549,-0.57229 z" /><path
        id="path27747"
        style="fill:#94e299;fill-opacity:1;stroke:none;stroke-width:0.327173;stroke-linecap:round;stroke-linejoin:round"
        d="m 250.31898,226.14595 c -0.12122,0.9291 -1.01104,1.57904 -1.01104,1.57904 0,0 -0.69342,-0.85641 -0.57228,-1.7855 0.12122,-0.9291 1.01103,-1.57904 1.01103,-1.57904 0,0 0.69344,0.85642 0.57229,1.7855 z" /><path
        id="path27749"
        style="fill:#94e299;fill-opacity:1;stroke:none;stroke-width:0.327173;stroke-linecap:round;stroke-linejoin:round"
        d="m 247.81797,226.68835 c 0.92909,0.12122 1.57904,1.01105 1.57904,1.01105 0,0 -0.85642,0.69342 -1.78552,0.57228 -0.92908,-0.12121 -1.57903,-1.01103 -1.57903,-1.01103 0,0 0.8564,-0.69344 1.78551,-0.5723 z" /><path
        id="path27751"
        style="fill:#94e299;fill-opacity:1;stroke:none;stroke-width:0.327173;stroke-linecap:round;stroke-linejoin:round"
        d="m 252.22609,228.61924 c -0.1212,0.92909 -1.01104,1.57904 -1.01104,1.57904 0,0 -0.69343,-0.8564 -0.57229,-1.7855 0.12122,-0.9291 1.01103,-1.57904 1.01103,-1.57904 0,0 0.69345,0.85641 0.5723,1.7855 z" /><path
        id="path27753"
        style="fill:#94e299;fill-opacity:1;stroke:none;stroke-width:0.327173;stroke-linecap:round;stroke-linejoin:round"
        d="m 249.9808,229.00182 c 0.92908,0.1212 1.57904,1.01103 1.57904,1.01103 0,0 -0.85642,0.69342 -1.78551,0.57228 -0.92908,-0.12121 -1.57903,-1.01102 -1.57903,-1.01102 0,0 0.85639,-0.69345 1.7855,-0.57229 z" /><path
        id="path27755"
        style="fill:#94e299;fill-opacity:1;stroke:none;stroke-width:0.327173;stroke-linecap:round;stroke-linejoin:round"
        d="m 254.4051,230.95388 c -0.12122,0.9291 -1.01105,1.57905 -1.01105,1.57905 0,0 -0.69341,-0.85642 -0.57228,-1.7855 0.12121,-0.92911 1.01104,-1.57905 1.01104,-1.57905 0,0 0.69345,0.85642 0.57229,1.7855 z" /><path
        id="path27757"
        style="fill:#94e299;fill-opacity:1;stroke:none;stroke-width:0.327173;stroke-linecap:round;stroke-linejoin:round"
        d="m 251.90406,231.49629 c 0.9291,0.12121 1.57905,1.01105 1.57905,1.01105 0,0 -0.85641,0.69341 -1.78551,0.57227 -0.92909,-0.12121 -1.57903,-1.01103 -1.57903,-1.01103 0,0 0.85642,-0.69344 1.78549,-0.57229 z" /><path
        style="fill:none;fill-opacity:0.996078;stroke:#9cdf8e;stroke-width:0.512798;stroke-linecap:round;stroke-linejoin:round;stroke-dasharray:none;stroke-opacity:0.996078"
        d="m 272.8851,226.2956 c -0.96369,1.4602 -1.9273,2.9203 -2.53895,3.82402 -0.61164,0.90373 -0.87129,1.25105 -1.06929,1.65484 -0.19799,0.4038 -0.3343,0.86394 -0.4706,1.32405"
        id="path27759" /><path
        id="circle27761"
        style="fill:#fcf2a1;stroke-width:0.88912;stroke-linecap:round;stroke-linejoin:round"
        d="m 272.94254,225.25719 a 1.1453731,1.1453731 0 0 0 -0.62636,1.49379 1.1453731,1.1453731 0 0 0 1.49379,0.62637 1.1453731,1.1453731 0 0 0 0.62637,-1.4938 1.1453731,1.1453731 0 0 0 -1.4938,-0.62636 z" /><path
        id="ellipse27763"
        style="fill:#faf9ed;stroke-width:0.284916;stroke-linecap:round;stroke-linejoin:round"
        d="m 274.78292,225.38806 a 0.30907726,0.61815453 67.748902 0 0 -0.4551,0.52013 0.30907726,0.61815453 67.748902 0 0 0.68917,0.052 0.30907726,0.61815453 67.748902 0 0 0.45508,-0.52013 0.30907726,0.61815453 67.748902 0 0 -0.68915,-0.052 z" /><path
        id="ellipse27765"
        style="fill:#faf9ed;stroke-width:0.284916;stroke-linecap:round;stroke-linejoin:round"
        d="m 274.96865,225.77673 a 0.30907726,0.61815453 82.748903 0 0 -0.57419,0.38463 0.30907726,0.61815453 82.748903 0 0 0.65221,0.22857 0.30907726,0.61815453 82.748903 0 0 0.57421,-0.38462 0.30907726,0.61815453 82.748903 0 0 -0.65223,-0.22858 z" /><path
        id="ellipse27767"
        style="fill:#faf9ed;stroke-width:0.284916;stroke-linecap:round;stroke-linejoin:round"
        d="m 275.04749,226.20027 a 0.61815464,0.30907732 7.7489025 0 0 -0.65418,0.22291 0.61815464,0.30907732 7.7489025 0 0 0.57083,0.38961 0.61815464,0.30907732 7.7489025 0 0 0.65419,-0.22291 0.61815464,0.30907732 7.7489025 0 0 -0.57084,-0.38961 z" /><path
        id="ellipse27769"
        style="fill:#faf9ed;stroke-width:0.284916;stroke-linecap:round;stroke-linejoin:round"
        d="m 275.01401,226.62978 a 0.61815464,0.30907732 22.748903 0 0 -0.68959,0.046 0.61815464,0.30907732 22.748903 0 0 0.45055,0.52408 0.61815464,0.30907732 22.748903 0 0 0.68959,-0.046 0.61815464,0.30907732 22.748903 0 0 -0.45055,-0.52406 z" /><path
        id="ellipse27771"
        style="fill:#faf9ed;stroke-width:0.284916;stroke-linecap:round;stroke-linejoin:round"
        d="m 274.87059,227.03601 a 0.61815459,0.30907729 37.748901 0 0 -0.678,-0.13406 0.61815459,0.30907729 37.748901 0 0 0.29957,0.62283 0.61815459,0.30907729 37.748901 0 0 0.67798,0.13405 0.61815459,0.30907729 37.748901 0 0 -0.29955,-0.62282 z" /><path
        id="ellipse27773"
        style="fill:#faf9ed;stroke-width:0.284916;stroke-linecap:round;stroke-linejoin:round"
        d="m 274.6268,227.39124 a 0.61815459,0.30907729 52.748904 0 0 -0.6202,-0.30495 0.61815459,0.30907729 52.748904 0 0 0.12815,0.67912 0.61815459,0.30907729 52.748904 0 0 0.6202,0.30497 0.61815459,0.30907729 52.748904 0 0 -0.12815,-0.67914 z" /><path
        id="ellipse27775"
        style="fill:#faf9ed;stroke-width:0.284916;stroke-linecap:round;stroke-linejoin:round"
        d="m 274.29943,227.67131 a 0.61815453,0.30907726 67.748902 0 0 -0.52013,-0.45509 0.61815453,0.30907726 67.748902 0 0 -0.052,0.68916 0.61815453,0.30907726 67.748902 0 0 0.52014,0.45508 0.61815453,0.30907726 67.748902 0 0 0.052,-0.68915 z" /><path
        id="ellipse27777"
        style="fill:#faf9ed;stroke-width:0.284916;stroke-linecap:round;stroke-linejoin:round"
        d="m 273.91076,227.85712 a 0.61815453,0.30907726 82.748903 0 0 -0.38462,-0.5742 0.61815453,0.30907726 82.748903 0 0 -0.22859,0.65222 0.61815453,0.30907726 82.748903 0 0 0.38463,0.5742 0.61815453,0.30907726 82.748903 0 0 0.22858,-0.65222 z" /><path
        id="ellipse27779"
        style="fill:#faf9ed;stroke-width:0.284916;stroke-linecap:round;stroke-linejoin:round"
        d="m 273.05766,227.90248 a 0.30907732,0.61815464 22.748903 0 0 -0.046,-0.68959 0.30907732,0.61815464 22.748903 0 0 -0.52408,0.45056 0.30907732,0.61815464 22.748903 0 0 0.046,0.68958 0.30907732,0.61815464 22.748903 0 0 0.52406,-0.45055 z" /><path
        id="ellipse27781"
        style="fill:#faf9ed;stroke-width:0.284916;stroke-linecap:round;stroke-linejoin:round"
        d="m 273.48717,227.93596 a 0.30907732,0.61815464 7.7489025 0 0 -0.22291,-0.65418 0.30907732,0.61815464 7.7489025 0 0 -0.3896,0.57083 0.30907732,0.61815464 7.7489025 0 0 0.22291,0.65419 0.30907732,0.61815464 7.7489025 0 0 0.3896,-0.57084 z" /><path
        id="ellipse27783"
        style="fill:#faf9ed;stroke-width:0.284916;stroke-linecap:round;stroke-linejoin:round"
        d="m 272.6515,227.759 a 0.30907729,0.61815459 37.748901 0 0 0.13404,-0.67799 0.30907729,0.61815459 37.748901 0 0 -0.62282,0.29956 0.30907729,0.61815459 37.748901 0 0 -0.13405,0.67799 0.30907729,0.61815459 37.748901 0 0 0.62283,-0.29956 z" /><path
        id="ellipse27785"
        style="fill:#faf9ed;stroke-width:0.284916;stroke-linecap:round;stroke-linejoin:round"
        d="m 272.29618,227.51527 a 0.30907729,0.61815459 52.748904 0 0 0.30496,-0.62019 0.30907729,0.61815459 52.748904 0 0 -0.67913,0.12815 0.30907729,0.61815459 52.748904 0 0 -0.30496,0.62019 0.30907729,0.61815459 52.748904 0 0 0.67913,-0.12815 z" /><path
        id="ellipse27787"
        style="fill:#faf9ed;stroke-width:0.284916;stroke-linecap:round;stroke-linejoin:round"
        d="m 272.01618,227.18791 a 0.30907726,0.61815453 67.748902 0 0 0.45508,-0.52013 0.30907726,0.61815453 67.748902 0 0 -0.68915,-0.052 0.30907726,0.61815453 67.748902 0 0 -0.4551,0.52014 0.30907726,0.61815453 67.748902 0 0 0.68917,0.052 z" /><path
        id="ellipse27789"
        style="fill:#faf9ed;stroke-width:0.284916;stroke-linecap:round;stroke-linejoin:round"
        d="m 271.75153,226.37563 a 0.61815464,0.30907732 7.7489025 0 0 0.65419,-0.22291 0.61815464,0.30907732 7.7489025 0 0 -0.57085,-0.3896 0.61815464,0.30907732 7.7489025 0 0 -0.65418,0.22291 0.61815464,0.30907732 7.7489025 0 0 0.57084,0.3896 z" /><path
        id="ellipse27791"
        style="fill:#faf9ed;stroke-width:0.284916;stroke-linecap:round;stroke-linejoin:round"
        d="m 271.83037,226.79916 a 0.30907726,0.61815453 82.748903 0 0 0.5742,-0.38462 0.30907726,0.61815453 82.748903 0 0 -0.65222,-0.22859 0.30907726,0.61815453 82.748903 0 0 -0.5742,0.38464 0.30907726,0.61815453 82.748903 0 0 0.65222,0.22857 z" /><path
        id="ellipse27793"
        style="fill:#faf9ed;stroke-width:0.284916;stroke-linecap:round;stroke-linejoin:round"
        d="m 271.9285,225.53987 a 0.61815459,0.30907729 37.748901 0 0 0.67799,0.13404 0.61815459,0.30907729 37.748901 0 0 -0.29955,-0.62282 0.61815459,0.30907729 37.748901 0 0 -0.67799,-0.13404 0.61815459,0.30907729 37.748901 0 0 0.29955,0.62282 z" /><path
        id="ellipse27795"
        style="fill:#faf9ed;stroke-width:0.284916;stroke-linecap:round;stroke-linejoin:round"
        d="m 271.78497,225.9461 a 0.61815464,0.30907732 22.748903 0 0 0.68959,-0.046 0.61815464,0.30907732 22.748903 0 0 -0.45055,-0.52406 0.61815464,0.30907732 22.748903 0 0 -0.68958,0.046 0.61815464,0.30907732 22.748903 0 0 0.45054,0.52407 z" /><path
        id="ellipse27797"
        style="fill:#faf9ed;stroke-width:0.284916;stroke-linecap:round;stroke-linejoin:round"
        d="m 272.17222,225.18466 a 0.61815459,0.30907729 52.748904 0 0 0.6202,0.30496 0.61815459,0.30907729 52.748904 0 0 -0.12815,-0.67913 0.61815459,0.30907729 52.748904 0 0 -0.6202,-0.30496 0.61815459,0.30907729 52.748904 0 0 0.12815,0.67913 z" /><path
        id="ellipse27799"
        style="fill:#faf9ed;stroke-width:0.284916;stroke-linecap:round;stroke-linejoin:round"
        d="m 272.49959,224.9046 a 0.61815453,0.30907726 67.748902 0 0 0.52014,0.45508 0.61815453,0.30907726 67.748902 0 0 0.052,-0.68915 0.61815453,0.30907726 67.748902 0 0 -0.52013,-0.4551 0.61815453,0.30907726 67.748902 0 0 -0.052,0.68917 z" /><path
        id="ellipse27801"
        style="fill:#faf9ed;stroke-width:0.284916;stroke-linecap:round;stroke-linejoin:round"
        d="m 272.88831,224.71879 a 0.61815453,0.30907726 82.748903 0 0 0.38464,0.57421 0.61815453,0.30907726 82.748903 0 0 0.22858,-0.65223 0.61815453,0.30907726 82.748903 0 0 -0.38463,-0.5742 0.61815453,0.30907726 82.748903 0 0 -0.22859,0.65222 z" /><path
        id="ellipse27803"
        style="fill:#faf9ed;stroke-width:0.284916;stroke-linecap:round;stroke-linejoin:round"
        d="m 273.31182,224.63996 a 0.30907732,0.61815464 7.7489025 0 0 0.22291,0.65418 0.30907732,0.61815464 7.7489025 0 0 0.3896,-0.57083 0.30907732,0.61815464 7.7489025 0 0 -0.22291,-0.65419 0.30907732,0.61815464 7.7489025 0 0 -0.3896,0.57084 z" /><path
        id="ellipse27805"
        style="fill:#faf9ed;stroke-width:0.284916;stroke-linecap:round;stroke-linejoin:round"
        d="m 273.74135,224.67342 a 0.30907732,0.61815464 22.748903 0 0 0.046,0.68959 0.30907732,0.61815464 22.748903 0 0 0.52406,-0.45055 0.30907732,0.61815464 22.748903 0 0 -0.046,-0.68959 0.30907732,0.61815464 22.748903 0 0 -0.52407,0.45055 z" /><path
        id="ellipse27807"
        style="fill:#faf9ed;stroke-width:0.284916;stroke-linecap:round;stroke-linejoin:round"
        d="m 274.50282,225.06065 a 0.30907729,0.61815459 52.748904 0 0 -0.30495,0.6202 0.30907729,0.61815459 52.748904 0 0 0.67913,-0.12815 0.30907729,0.61815459 52.748904 0 0 0.30496,-0.6202 0.30907729,0.61815459 52.748904 0 0 -0.67914,0.12815 z" /><path
        id="ellipse27809"
        style="fill:#faf9ed;stroke-width:0.284916;stroke-linecap:round;stroke-linejoin:round"
        d="m 274.14763,224.81692 a 0.30907729,0.61815459 37.748901 0 0 -0.13405,0.67799 0.30907729,0.61815459 37.748901 0 0 0.62283,-0.29955 0.30907729,0.61815459 37.748901 0 0 0.13404,-0.678 0.30907729,0.61815459 37.748901 0 0 -0.62282,0.29956 z" /><path
        id="ellipse27811"
        style="fill:#faf9ed;stroke-width:0.284916;stroke-linecap:round;stroke-linejoin:round"
        d="m 274.14763,224.81692 a 0.30907729,0.61815459 37.748901 0 0 -0.13405,0.67799 0.30907729,0.61815459 37.748901 0 0 0.62283,-0.29955 0.30907729,0.61815459 37.748901 0 0 0.13404,-0.678 0.30907729,0.61815459 37.748901 0 0 -0.62282,0.29956 z" /><path
        style="fill:none;fill-opacity:1;stroke:#9cdf8e;stroke-width:0.711089;stroke-linecap:round;stroke-linejoin:round;stroke-dasharray:none;stroke-opacity:0.996078"
        d="m 246.68885,238.25444 c 0.79005,1.06432 1.58003,2.12854 2.12973,2.91849 0.54971,0.78994 0.85916,1.3056 1.27343,1.77171 0.41426,0.46612 0.93326,0.8827 1.4522,1.29922"
        id="path27813" /><path
        id="path27815"
        style="fill:#ffb3b3;fill-opacity:1;stroke:none;stroke-width:1.57011;stroke-linecap:round;stroke-linejoin:round;stroke-dasharray:none;stroke-opacity:1;paint-order:markers fill stroke;stop-color:#000000"
        d="m 245.50304,234.29463 a 2.1078003,0.83387799 76.593808 0 0 -0.45424,1.00355 2.0821014,0.84417044 48.369627 0 0 -1.34355,-0.34748 2.0821014,0.84417044 48.369627 0 0 0.33806,1.54931 2.0289113,0.86630113 18.470539 0 0 -1.18329,0.41103 2.0289113,0.86630113 18.470539 0 0 1.70077,1.45983 2.0289113,0.86630113 18.470539 0 0 2.07471,-0.058 2.0289113,0.86630113 18.470539 0 0 0.002,-0.002 2.1078003,0.83387799 76.593808 0 0 0.16545,-2.15847 2.1078003,0.83387799 76.593808 0 0 -1.29986,-1.85759 z" /><path
        style="fill:none;fill-opacity:1;stroke:#92c68f;stroke-width:0.635084;stroke-linecap:round;stroke-linejoin:round;stroke-dasharray:none;stroke-opacity:1"
        d="m 284.21162,241.35433 c -0.73177,0.93057 -1.46346,1.86104 -1.97385,2.55263 -0.51039,0.69159 -0.79947,1.14425 -1.18088,1.5501 -0.38142,0.40584 -0.85512,0.76486 -1.32875,1.12383"
        id="path27817" /><path
        id="path27819"
        style="fill:#ffeb81;fill-opacity:1;stroke:none;stroke-width:1.40229;stroke-linecap:round;stroke-linejoin:round;stroke-dasharray:none;stroke-opacity:1;paint-order:markers fill stroke;stop-color:#000000"
        d="m 285.36867,237.84909 a 0.7447475,1.8825043 15 0 0 -1.20649,1.62561 0.7447475,1.8825043 15 0 0 0.10114,1.93837 0.77370501,1.8120474 73.123269 0 0 1.84471,0.0984 0.77370501,1.8120474 73.123269 0 0 1.5553,-1.26141 0.77370501,1.8120474 73.123269 0 0 -1.04632,-0.39584 0.75393975,1.8595522 43.224181 0 0 0.34047,-1.37526 0.75393975,1.8595522 43.224181 0 0 -1.2075,0.27646 0.7447475,1.8825043 15 0 0 -0.38136,-0.90633 z" /><path
        style="fill:none;fill-opacity:1;stroke:#c8f0ac;stroke-width:0.82053;stroke-linecap:round;stroke-linejoin:round;stroke-dasharray:none;stroke-opacity:1"
        d="m 286.44261,226.43976 c -2.45359,2.31765 -4.9069,4.63504 -6.70817,6.94432 -1.80127,2.30928 -2.9506,4.61033 -4.09978,6.9111"
        id="path27821" /><path
        id="path27823"
        style="fill:#94e299;fill-opacity:1;stroke:none;stroke-width:0.32291;stroke-linecap:round;stroke-linejoin:round"
        d="m 282.89549,227.49672 c 0.11963,0.91699 0.99788,1.55848 0.99788,1.55848 0,0 0.68438,-0.84527 0.56483,-1.76225 -0.11964,-0.91699 -0.99787,-1.55847 -0.99787,-1.55847 0,0 -0.68441,0.84526 -0.56484,1.76224 z" /><path
        id="path27825"
        style="fill:#94e299;fill-opacity:1;stroke:none;stroke-width:0.32291;stroke-linecap:round;stroke-linejoin:round"
        d="m 285.36394,228.03206 c -0.91698,0.11964 -1.55847,0.99787 -1.55847,0.99787 0,0 0.84525,0.68438 1.76225,0.56483 0.91698,-0.11964 1.55846,-0.99786 1.55846,-0.99786 0,0 -0.84525,-0.68441 -1.76224,-0.56484 z" /><path
        id="path27827"
        style="fill:#94e299;fill-opacity:1;stroke:none;stroke-width:0.32291;stroke-linecap:round;stroke-linejoin:round"
        d="m 281.07206,229.49663 c 0.11964,0.91699 0.99787,1.55848 0.99787,1.55848 0,0 0.68438,-0.84527 0.56482,-1.76225 -0.11964,-0.91699 -0.99786,-1.55847 -0.99786,-1.55847 0,0 -0.6844,0.84526 -0.56483,1.76224 z" /><path
        id="path27829"
        style="fill:#94e299;fill-opacity:1;stroke:none;stroke-width:0.32291;stroke-linecap:round;stroke-linejoin:round"
        d="m 283.54049,230.03196 c -0.91699,0.11964 -1.55848,0.99788 -1.55848,0.99788 0,0 0.84526,0.68439 1.76226,0.56482 0.91699,-0.11963 1.55846,-0.99786 1.55846,-0.99786 0,0 -0.84526,-0.6844 -1.76224,-0.56484 z" /><path
        id="path27831"
        style="fill:#94e299;fill-opacity:1;stroke:none;stroke-width:0.32291;stroke-linecap:round;stroke-linejoin:round"
        d="m 279.18979,231.93769 c 0.11964,0.917 0.99789,1.55848 0.99789,1.55848 0,0 0.68437,-0.84526 0.5648,-1.76225 -0.11964,-0.91699 -0.99785,-1.55847 -0.99785,-1.55847 0,0 -0.68439,0.84526 -0.56484,1.76224 z" /><path
        id="path27833"
        style="fill:#94e299;fill-opacity:1;stroke:none;stroke-width:0.32291;stroke-linecap:round;stroke-linejoin:round"
        d="m 281.40583,232.31528 c -0.91698,0.11963 -1.55847,0.99787 -1.55847,0.99787 0,0 0.84527,0.68439 1.76224,0.56482 0.91699,-0.11963 1.55847,-0.99785 1.55847,-0.99785 0,0 -0.84526,-0.68442 -1.76224,-0.56484 z" /><path
        id="path27835"
        style="fill:#94e299;fill-opacity:1;stroke:none;stroke-width:0.32291;stroke-linecap:round;stroke-linejoin:round"
        d="m 277.03918,234.24192 c 0.11963,0.91699 0.99787,1.55847 0.99787,1.55847 0,0 0.68438,-0.84525 0.56482,-1.76224 -0.11963,-0.91699 -0.99785,-1.55846 -0.99785,-1.55846 0,0 -0.68442,0.84525 -0.56484,1.76223 z" /><path
        id="path27837"
        style="fill:#94e299;fill-opacity:1;stroke:none;stroke-width:0.32291;stroke-linecap:round;stroke-linejoin:round"
        d="m 279.50762,234.77726 c -0.91698,0.11963 -1.55846,0.99787 -1.55846,0.99787 0,0 0.84525,0.68439 1.76224,0.56482 0.91698,-0.11963 1.55846,-0.99785 1.55846,-0.99785 0,0 -0.84525,-0.68442 -1.76224,-0.56484 z" /><path
        fill="#ff0066"
        d="m 271.97133,233.09231 c 3.71889,2.47926 7.20716,5.88105 8.82157,10.32065 1.58557,4.41078 1.29728,9.8594 -1.18197,13.95305 -2.47927,4.12251 -7.12068,6.89006 -11.50264,7.09186 -4.41078,0.17297 -8.5621,-2.19097 -13.29001,-3.63241 -4.75672,-1.44143 -10.0612,-1.93152 -12.10803,-4.69908 -2.04683,-2.79636 -0.83603,-7.81254 1.44144,-11.24316 2.30628,-3.43061 5.65042,-5.24681 8.53327,-7.87022 2.88288,-2.59458 5.24682,-6.02518 8.41798,-6.94771 3.17114,-0.95133 7.14949,0.57658 10.86839,3.02702 z"
        id="path27839"
        style="display:inline;fill:#9acab0;fill-opacity:1;stroke-width:0.288286" /><path
        fill="#ff0066"
        d="m 270.81169,234.67951 c 3.2982,2.1988 6.39188,5.21576 7.82366,9.15315 1.40621,3.91182 1.15052,8.74408 -1.04828,12.37466 -2.1988,3.65615 -6.31516,6.11063 -10.20143,6.2896 -3.91182,0.1534 -7.59353,-1.94313 -11.7866,-3.2215 -4.21864,-1.27837 -8.92305,-1.71302 -10.73834,-4.16751 -1.81529,-2.48003 -0.74146,-6.92877 1.27838,-9.97131 2.04539,-3.04252 5.01122,-4.65327 7.56796,-6.97991 2.55676,-2.30108 4.65329,-5.34361 7.46571,-6.16177 2.81242,-0.84372 6.34073,0.51135 9.63894,2.68459 z"
        id="path27841"
        style="display:inline;fill:#e3f0f0;fill-opacity:1;stroke-width:0.255675" /><path
        style="fill:none;fill-opacity:1;stroke:#97c8ae;stroke-width:1.03472;stroke-linecap:round;stroke-linejoin:round;stroke-dasharray:none;stroke-opacity:1"
        d="m 271.30543,245.75555 c -0.71663,-0.34432 -1.43318,-0.6886 -2.13733,-0.7049 -0.70414,-0.0163 -1.39587,0.2953 -2.08767,0.60694"
        id="path27843" /><path
        style="fill:none;fill-opacity:1;stroke:#97c8ae;stroke-width:1.03472;stroke-linecap:round;stroke-linejoin:round;stroke-dasharray:none;stroke-opacity:1"
        d="m 258.15497,245.75555 c -0.71661,-0.34431 -1.43316,-0.6886 -2.13731,-0.7049 -0.70415,-0.0163 -1.39587,0.2953 -2.08768,0.60694"
        id="path27845" /><path
        style="fill:none;fill-opacity:1;stroke:#97c8ae;stroke-width:1.03467;stroke-linecap:round;stroke-linejoin:round;stroke-dasharray:none;stroke-opacity:1"
        d="m 259.87216,250.44059 c 0.742,0.70876 1.77297,1.10563 2.79869,1.07735 1.0051,-0.0277 1.99312,-0.4626 2.69239,-1.1851"
        id="path27847" /><path
        d="m 248.8169,205.17857 0.22552,0.26685 q -0.26177,0.13728 -0.94257,0.51999 -0.67056,0.3859 -0.97932,0.54782 -0.4967,0.26049 -0.70257,0.30855 -0.32009,-0.77354 -1.21485,-2.51233 -0.89476,-1.73878 -1.17997,-2.46214 0.23877,-0.0995 1.22579,-0.60006 0.99373,-0.50403 1.32042,-0.61545 l 0.23224,0.26333 q -0.27389,0.2121 -1.14131,0.76115 -0.86743,0.54905 -0.91089,0.5804 0.0877,0.15086 0.35774,0.61686 0.27677,0.46249 0.44541,0.76773 0.24229,-0.0928 0.87455,-0.35595 0.62874,-0.26982 0.79687,-0.34088 l 0.22904,0.27356 q -1.34938,0.87027 -1.5875,1.00371 0.15488,0.29533 0.45827,0.90647 0.30657,0.6009 0.45442,0.88281 1.61101,-0.66514 2.03871,-0.81242 z"
        style="font-size:7.76111px;font-family:Neucha;-inkscape-font-specification:Neucha;letter-spacing:0.79375px;baseline-shift:baseline;white-space:pre;fill:#77ba91;fill-opacity:1;stroke-width:8.564;stroke-linecap:round;stroke-linejoin:round"
        id="path4855" /><path
        d="m 250.55887,200.72837 0.36352,-0.0697 0.0277,0.0705 q 0.18868,0.47961 0.69461,1.60001 0.51298,1.11761 0.80653,1.71886 -0.11887,0.11192 -0.24582,0.16186 -0.11285,0.0444 -0.26778,0.0646 l -0.12857,-0.16118 q -0.35151,0.43149 -0.76058,0.59242 -0.30328,0.11931 -0.58447,0.067 -0.27414,-0.055 -0.47451,-0.21241 -0.20314,-0.16442 -0.39299,-0.43995 -0.19262,-0.28259 -0.31089,-0.52112 -0.114,-0.24836 -0.23608,-0.55869 -0.35517,-0.90279 -0.53921,-1.70186 l 0.34513,-0.0543 q 0.14094,0.21333 0.24915,0.4884 0.061,0.15517 0.18972,0.54436 0.13573,0.38641 0.21342,0.58389 0.13596,0.3456 0.26407,0.58841 0.13238,0.23299 0.31135,0.43949 0.18326,0.19668 0.41658,0.25149 0.23333,0.0548 0.50839,-0.0534 0.31034,-0.12209 0.61455,-0.40466 -0.0886,-0.26651 -0.49621,-1.34412 -0.41043,-1.08466 -0.56766,-1.64995 z"
        style="font-size:7.76111px;font-family:Neucha;-inkscape-font-specification:Neucha;letter-spacing:0.79375px;baseline-shift:baseline;white-space:pre;fill:#77ba91;fill-opacity:1;stroke-width:8.564;stroke-linecap:round;stroke-linejoin:round"
        id="path4857" /><path
        d="m 253.50808,200.57114 0.81088,2.88991 q -0.094,0.0881 -0.24765,0.1296 -0.11708,0.0316 -0.2733,0.0345 -0.1024,-0.46693 -0.46022,-1.82268 -0.35783,-1.35575 -0.48227,-2.02084 l 0.34903,-0.0156 0.13249,0.40387 q 0.27731,-0.5144 0.78223,-0.65059 0.25612,-0.0691 0.41966,-0.0739 0.16354,-0.005 0.34205,0.10399 0.18385,0.0996 0.32019,0.31399 0.13634,0.21443 0.3133,0.6377 0.175,0.41595 0.35485,0.99545 0.1852,0.5702 0.43134,1.45367 -0.04,0.0265 -0.16436,0.06 -0.26344,0.0711 -0.42756,0.0447 -0.0609,-0.10919 -0.13388,-0.37994 -0.0375,-0.13904 -0.13281,-0.52153 -0.09,-0.39179 -0.14722,-0.604 -0.0947,-0.35125 -0.19506,-0.60679 -0.093,-0.25752 -0.23527,-0.4939 -0.13494,-0.23836 -0.31879,-0.33792 -0.17654,-0.10153 -0.38876,-0.0443 -0.24148,0.0651 -0.37065,0.13922 -0.12185,0.0721 -0.16657,0.13913 -0.0374,0.065 -0.11165,0.22637 z"
        style="font-size:7.76111px;font-family:Neucha;-inkscape-font-specification:Neucha;letter-spacing:0.79375px;baseline-shift:baseline;white-space:pre;fill:#77ba91;fill-opacity:1;stroke-width:8.564;stroke-linecap:round;stroke-linejoin:round"
        id="path4859" /><path
        d="m 257.43785,201.06468 q -0.0456,-0.29971 -0.0416,-0.67599 0.0115,-0.37742 0.0773,-0.80143 0.0658,-0.424 0.27946,-0.73253 0.21369,-0.30853 0.55087,-0.35987 0.71932,-0.10951 1.25315,0.4762 0.53269,0.57822 0.65362,1.37247 0.0513,0.33718 0.0277,0.68576 -0.0172,0.33996 -0.11805,0.68496 -0.1008,0.34501 -0.35245,0.60566 -0.24529,0.252 -0.61537,0.33902 -0.70304,0.015 -1.15297,-0.42246 -0.45108,-0.44498 -0.56173,-1.17179 z m 0.97034,-2.18703 q -0.25769,0.0699 -0.36907,0.54685 -0.11138,0.47695 -0.0988,0.91203 0.0114,0.42758 0.0605,0.74977 0.0639,0.4196 0.3734,0.74048 0.31586,0.31223 0.63806,0.26318 0.23228,-0.0354 0.39222,-0.24371 0.15994,-0.20835 0.22491,-0.48657 0.0713,-0.28686 0.0827,-0.56459 0.0189,-0.27886 -0.0131,-0.48866 -0.0935,-0.61442 -0.44036,-1.02928 -0.34683,-0.41485 -0.85048,-0.3995 z"
        style="font-size:7.76111px;font-family:Neucha;-inkscape-font-specification:Neucha;letter-spacing:0.79375px;baseline-shift:baseline;white-space:pre;fill:#77ba91;fill-opacity:1;stroke-width:8.564;stroke-linecap:round;stroke-linejoin:round"
        id="path4861" /><path
        d="m 261.82115,198.22802 0.35277,0.0534 q 0.10016,0.61636 0.23066,1.94468 0.13001,1.32076 0.16545,1.63747 -0.0531,0.23883 -0.24974,0.2514 -0.13615,0.009 -0.2715,-0.089 -0.12828,-0.10572 -0.16869,-0.26263 -0.005,-0.31108 -0.0425,-1.61495 -0.0383,-1.31143 -0.0165,-1.9204 z m 0.0193,-1.36069 q 0.20422,-0.013 0.35197,0.15977 0.14727,0.16527 0.16178,0.39218 0.0106,0.1664 -0.0658,0.27761 -0.0693,0.10317 -0.2055,0.11187 -0.21178,0.0135 -0.34393,-0.15269 -0.13214,-0.16622 -0.14713,-0.4007 -0.0106,-0.1664 0.0512,-0.26909 0.0689,-0.11072 0.19745,-0.11895 z"
        style="font-size:7.76111px;font-family:Neucha;-inkscape-font-specification:Neucha;letter-spacing:0.79375px;baseline-shift:baseline;white-space:pre;fill:#77ba91;fill-opacity:1;stroke-width:8.564;stroke-linecap:round;stroke-linejoin:round"
        id="path4863" /><path
        d="m 264.39962,198.74199 -0.14446,-0.38926 q 0.20064,-0.19341 0.50584,-0.30151 0.30535,-0.11569 0.60088,-0.11026 1.28068,0.0235 1.24007,2.23626 -0.006,0.30312 -0.0543,0.8935 -0.0412,0.59052 -0.0466,0.88606 -0.0649,0.2338 -0.23923,0.23061 -0.1364,-0.003 -0.24756,-0.141 -0.11117,-0.13849 -0.10811,-0.3052 9.7e-4,-0.0531 0.009,-0.0756 -0.47818,0.44605 -1.00863,0.43632 -0.40163,-0.007 -0.69947,-0.3009 -0.29011,-0.30096 -0.28246,-0.71775 0.0129,-0.70474 0.56897,-1.26308 0.56362,-0.55819 1.26079,-0.54539 0.0303,5.5e-4 0.0605,0.009 0.0303,5.5e-4 0.0681,0.009 0.0453,0.008 0.0681,0.009 -0.0444,-0.88774 -0.68847,-0.89956 -0.3789,-0.007 -0.86285,0.34045 z m 1.54026,2.40096 q 0.0249,-0.53018 0.0299,-0.80298 0.004,-0.22734 -0.003,-0.63683 l -0.0606,-10e-4 q -0.53817,-0.002 -0.9925,0.38355 -0.44675,0.38599 -0.45704,0.94675 -0.004,0.2425 0.13688,0.38912 0.14892,0.14676 0.3611,0.15066 0.33343,0.006 0.98576,-0.42916 z"
        style="font-size:7.76111px;font-family:Neucha;-inkscape-font-specification:Neucha;letter-spacing:0.79375px;baseline-shift:baseline;white-space:pre;fill:#77ba91;fill-opacity:1;stroke-width:8.564;stroke-linecap:round;stroke-linejoin:round"
        id="path4865" /><path
        d="m 273.18485,202.91891 -0.57724,-0.0376 q -0.003,-2.64784 -0.19121,-4.56521 -0.33938,0.54486 -0.80694,1.56054 -0.45888,1.00938 -0.62089,1.30605 -0.015,-0.002 -0.0536,-8e-4 -0.0299,-0.005 -0.0524,-0.008 -0.10481,-0.0166 -0.34081,-0.0769 -0.23601,-0.0603 -0.30338,-0.071 0.0268,-0.21828 -0.15332,-1.50521 -0.17898,-1.29441 -0.19939,-1.65061 -0.32653,1.19145 -1.74652,4.25111 l -0.45704,-0.11831 q 0.23384,-0.79942 0.9226,-2.48608 0.68875,-1.68666 0.91515,-2.63305 0.13712,0.006 0.21946,0.0194 0.0749,0.0118 0.54451,0.14749 0.10244,0.0315 0.19172,0.72859 0.098,0.69075 0.17459,1.51625 0.0766,0.8255 0.10655,0.97602 0.2913,-0.4834 0.76676,-1.59759 0.48294,-1.113 0.65243,-1.40848 0.1186,0.0264 0.74546,0.18694 0.0751,0.78689 0.11623,1.69118 0.0487,0.90548 0.0819,2.05407 0.0407,1.14977 0.0654,1.72151 z"
        style="font-size:7.76111px;font-family:Neucha;-inkscape-font-specification:Neucha;letter-spacing:0.79375px;baseline-shift:baseline;white-space:pre;fill:#77ba91;fill-opacity:1;stroke-width:8.564;stroke-linecap:round;stroke-linejoin:round"
        id="path4867" /><path
        d="m 275.44286,199.58121 0.31555,0.16651 q -0.10826,0.615 -0.42217,1.91227 -0.31188,1.28997 -0.38265,1.60071 -0.12872,0.20805 -0.31856,0.15521 -0.13143,-0.0366 -0.2271,-0.17336 -0.0863,-0.14205 -0.0729,-0.30351 0.0979,-0.2953 0.49134,-1.53898 0.39543,-1.25098 0.61645,-1.81885 z m 0.46604,-1.27853 q 0.19714,0.0549 0.27979,0.2667 0.0847,0.20453 0.0237,0.42357 -0.0447,0.16064 -0.15349,0.2405 -0.0994,0.0746 -0.23087,0.038 -0.20444,-0.0569 -0.27452,-0.25736 -0.0701,-0.20046 -0.007,-0.42681 0.0447,-0.16064 0.13685,-0.23726 0.10147,-0.0819 0.2256,-0.0473 z"
        style="font-size:7.76111px;font-family:Neucha;-inkscape-font-specification:Neucha;letter-spacing:0.79375px;baseline-shift:baseline;white-space:pre;fill:#77ba91;fill-opacity:1;stroke-width:8.564;stroke-linecap:round;stroke-linejoin:round"
        id="path4869" /><path
        d="m 277.85421,201.22578 -1.01278,2.82548 q -0.12766,0.0174 -0.27694,-0.0378 -0.11374,-0.0421 -0.24276,-0.1302 0.18697,-0.43995 0.68051,-1.7524 0.49354,-1.31244 0.77731,-1.92669 l 0.29359,0.1894 -0.12592,0.40597 q 0.52399,-0.25872 1.01448,-0.0773 0.2488,0.092 0.38493,0.18279 0.13613,0.0908 0.21861,0.28288 0.0922,0.18765 0.0792,0.44142 -0.0131,0.25376 -0.11395,0.70131 -0.0983,0.44044 -0.28728,1.017 -0.17929,0.57209 -0.49033,1.43485 -0.0479,-0.002 -0.16876,-0.0463 -0.2559,-0.0947 -0.37441,-0.21122 0.0136,-0.12426 0.11092,-0.38727 0.05,-0.13506 0.19379,-0.50208 0.15358,-0.37149 0.22983,-0.57764 0.12621,-0.34121 0.19243,-0.60763 0.0733,-0.26379 0.0943,-0.53889 0.0281,-0.27246 -0.0642,-0.46011 -0.0851,-0.18502 -0.29125,-0.26127 -0.23458,-0.0868 -0.38279,-0.10118 -0.1411,-0.0118 -0.21637,0.0169 -0.0682,0.0314 -0.22213,0.11987 z"
        style="font-size:7.76111px;font-family:Neucha;-inkscape-font-specification:Neucha;letter-spacing:0.79375px;baseline-shift:baseline;white-space:pre;fill:#77ba91;fill-opacity:1;stroke-width:8.564;stroke-linecap:round;stroke-linejoin:round"
        id="path4871" /><path
        d="m 282.39609,206.74534 -0.33518,-0.26148 q 0.068,-0.13548 0.0952,-0.20662 -0.47461,0.0502 -0.87428,-0.15042 -0.61644,-0.30935 -0.69677,-1.0111 -0.0735,-0.69835 0.263,-1.36898 0.17337,-0.34548 0.37376,-0.62652 0.20717,-0.27764 0.48888,-0.53483 0.29188,-0.26057 0.65125,-0.31767 0.36615,-0.0537 0.7455,0.13668 0.37257,0.18696 0.60594,0.53304 0.41454,-0.69086 0.78167,-1.42246 0.16658,-0.33193 0.23799,-0.49114 0.29456,0.22414 0.43664,0.41416 z m -0.0698,-0.94239 1.07429,-2.19145 q 0.004,-0.21015 -0.12484,-0.39337 -0.11836,-0.1866 -0.31481,-0.28518 -0.26418,-0.13258 -0.53884,-0.0584 -0.26789,0.0776 -0.49196,0.32128 -0.21389,0.24035 -0.37014,0.46722 -0.14947,0.23027 -0.28545,0.50123 -0.5779,1.1516 0.19434,1.53913 0.25742,0.12918 0.50141,0.16682 0.25416,0.0343 0.356,-0.0673 z"
        style="font-size:7.76111px;font-family:Neucha;-inkscape-font-specification:Neucha;letter-spacing:0.79375px;baseline-shift:baseline;white-space:pre;fill:#77ba91;fill-opacity:1;stroke-width:8.564;stroke-linecap:round;stroke-linejoin:round"
        id="path4873" /></g></g></svg>