<?xml version="1.0" encoding="UTF-8" standalone="no"?>
<!-- Created with Inkscape (http://www.inkscape.org/) -->

<svg
  width="46.009125mm"
  height="42.132717mm"
  viewBox="0 0 46.009124 42.132717"
  version="1.1"
  id="svg10955"
  xmlSpace="preserve"
  xmlns="http://www.w3.org/2000/svg"
  xmlnsSvg="http://www.w3.org/2000/svg"><defs
    id="defs10952" /><g
    id="layer1"
    transform="translate(-158.93945,-222.33414)"><g
      id="g14936"
      transform="translate(-82.724502)"><path
        id="path27741"
        style="fill:#94e299;fill-opacity:1;stroke:none;stroke-width:0.327173;stroke-linecap:round;stroke-linejoin:round"
        d="m 248.47147,224.11965 c -0.12121,0.92909 -1.01105,1.57904 -1.01105,1.57904 0,0 -0.6934,-0.85641 -0.57228,-1.78552 0.12122,-0.92909 1.01104,-1.57903 1.01104,-1.57903 0,0 0.69344,0.85642 0.57229,1.78551 z" /><path
        style="fill:none;fill-opacity:1;stroke:#c8f0ac;stroke-width:0.831361;stroke-linecap:round;stroke-linejoin:round;stroke-dasharray:none;stroke-opacity:1"
        d="m 244.87753,223.04872 c 2.48597,2.34825 4.97166,4.69623 6.79671,7.03601 1.82505,2.33977 2.98954,4.67118 4.15389,7.00232"
        id="path27743" /><path
        id="path27745"
        style="fill:#94e299;fill-opacity:1;stroke:none;stroke-width:0.327173;stroke-linecap:round;stroke-linejoin:round"
        d="m 245.97043,224.66205 c 0.9291,0.12121 1.57905,1.01104 1.57905,1.01104 0,0 -0.8564,0.69343 -1.78551,0.57229 -0.92909,-0.12122 -1.57903,-1.01104 -1.57903,-1.01104 0,0 0.85642,-0.69344 1.78549,-0.57229 z" /><path
        id="path27747"
        style="fill:#94e299;fill-opacity:1;stroke:none;stroke-width:0.327173;stroke-linecap:round;stroke-linejoin:round"
        d="m 250.31898,226.14595 c -0.12122,0.9291 -1.01104,1.57904 -1.01104,1.57904 0,0 -0.69342,-0.85641 -0.57228,-1.7855 0.12122,-0.9291 1.01103,-1.57904 1.01103,-1.57904 0,0 0.69344,0.85642 0.57229,1.7855 z" /><path
        id="path27749"
        style="fill:#94e299;fill-opacity:1;stroke:none;stroke-width:0.327173;stroke-linecap:round;stroke-linejoin:round"
        d="m 247.81797,226.68835 c 0.92909,0.12122 1.57904,1.01105 1.57904,1.01105 0,0 -0.85642,0.69342 -1.78552,0.57228 -0.92908,-0.12121 -1.57903,-1.01103 -1.57903,-1.01103 0,0 0.8564,-0.69344 1.78551,-0.5723 z" /><path
        id="path27751"
        style="fill:#94e299;fill-opacity:1;stroke:none;stroke-width:0.327173;stroke-linecap:round;stroke-linejoin:round"
        d="m 252.22609,228.61924 c -0.1212,0.92909 -1.01104,1.57904 -1.01104,1.57904 0,0 -0.69343,-0.8564 -0.57229,-1.7855 0.12122,-0.9291 1.01103,-1.57904 1.01103,-1.57904 0,0 0.69345,0.85641 0.5723,1.7855 z" /><path
        id="path27753"
        style="fill:#94e299;fill-opacity:1;stroke:none;stroke-width:0.327173;stroke-linecap:round;stroke-linejoin:round"
        d="m 249.9808,229.00182 c 0.92908,0.1212 1.57904,1.01103 1.57904,1.01103 0,0 -0.85642,0.69342 -1.78551,0.57228 -0.92908,-0.12121 -1.57903,-1.01102 -1.57903,-1.01102 0,0 0.85639,-0.69345 1.7855,-0.57229 z" /><path
        id="path27755"
        style="fill:#94e299;fill-opacity:1;stroke:none;stroke-width:0.327173;stroke-linecap:round;stroke-linejoin:round"
        d="m 254.4051,230.95388 c -0.12122,0.9291 -1.01105,1.57905 -1.01105,1.57905 0,0 -0.69341,-0.85642 -0.57228,-1.7855 0.12121,-0.92911 1.01104,-1.57905 1.01104,-1.57905 0,0 0.69345,0.85642 0.57229,1.7855 z" /><path
        id="path27757"
        style="fill:#94e299;fill-opacity:1;stroke:none;stroke-width:0.327173;stroke-linecap:round;stroke-linejoin:round"
        d="m 251.90406,231.49629 c 0.9291,0.12121 1.57905,1.01105 1.57905,1.01105 0,0 -0.85641,0.69341 -1.78551,0.57227 -0.92909,-0.12121 -1.57903,-1.01103 -1.57903,-1.01103 0,0 0.85642,-0.69344 1.78549,-0.57229 z" /><path
        style="fill:none;fill-opacity:0.996078;stroke:#9cdf8e;stroke-width:0.512798;stroke-linecap:round;stroke-linejoin:round;stroke-dasharray:none;stroke-opacity:0.996078"
        d="m 272.8851,226.2956 c -0.96369,1.4602 -1.9273,2.9203 -2.53895,3.82402 -0.61164,0.90373 -0.87129,1.25105 -1.06929,1.65484 -0.19799,0.4038 -0.3343,0.86394 -0.4706,1.32405"
        id="path27759" /><path
        id="circle27761"
        style="fill:#fcf2a1;stroke-width:0.88912;stroke-linecap:round;stroke-linejoin:round"
        d="m 272.94254,225.25719 a 1.1453731,1.1453731 0 0 0 -0.62636,1.49379 1.1453731,1.1453731 0 0 0 1.49379,0.62637 1.1453731,1.1453731 0 0 0 0.62637,-1.4938 1.1453731,1.1453731 0 0 0 -1.4938,-0.62636 z" /><path
        id="ellipse27763"
        style="fill:#faf9ed;stroke-width:0.284916;stroke-linecap:round;stroke-linejoin:round"
        d="m 274.78292,225.38806 a 0.30907726,0.61815453 67.748902 0 0 -0.4551,0.52013 0.30907726,0.61815453 67.748902 0 0 0.68917,0.052 0.30907726,0.61815453 67.748902 0 0 0.45508,-0.52013 0.30907726,0.61815453 67.748902 0 0 -0.68915,-0.052 z" /><path
        id="ellipse27765"
        style="fill:#faf9ed;stroke-width:0.284916;stroke-linecap:round;stroke-linejoin:round"
        d="m 274.96865,225.77673 a 0.30907726,0.61815453 82.748903 0 0 -0.57419,0.38463 0.30907726,0.61815453 82.748903 0 0 0.65221,0.22857 0.30907726,0.61815453 82.748903 0 0 0.57421,-0.38462 0.30907726,0.61815453 82.748903 0 0 -0.65223,-0.22858 z" /><path
        id="ellipse27767"
        style="fill:#faf9ed;stroke-width:0.284916;stroke-linecap:round;stroke-linejoin:round"
        d="m 275.04749,226.20027 a 0.61815464,0.30907732 7.7489025 0 0 -0.65418,0.22291 0.61815464,0.30907732 7.7489025 0 0 0.57083,0.38961 0.61815464,0.30907732 7.7489025 0 0 0.65419,-0.22291 0.61815464,0.30907732 7.7489025 0 0 -0.57084,-0.38961 z" /><path
        id="ellipse27769"
        style="fill:#faf9ed;stroke-width:0.284916;stroke-linecap:round;stroke-linejoin:round"
        d="m 275.01401,226.62978 a 0.61815464,0.30907732 22.748903 0 0 -0.68959,0.046 0.61815464,0.30907732 22.748903 0 0 0.45055,0.52408 0.61815464,0.30907732 22.748903 0 0 0.68959,-0.046 0.61815464,0.30907732 22.748903 0 0 -0.45055,-0.52406 z" /><path
        id="ellipse27771"
        style="fill:#faf9ed;stroke-width:0.284916;stroke-linecap:round;stroke-linejoin:round"
        d="m 274.87059,227.03601 a 0.61815459,0.30907729 37.748901 0 0 -0.678,-0.13406 0.61815459,0.30907729 37.748901 0 0 0.29957,0.62283 0.61815459,0.30907729 37.748901 0 0 0.67798,0.13405 0.61815459,0.30907729 37.748901 0 0 -0.29955,-0.62282 z" /><path
        id="ellipse27773"
        style="fill:#faf9ed;stroke-width:0.284916;stroke-linecap:round;stroke-linejoin:round"
        d="m 274.6268,227.39124 a 0.61815459,0.30907729 52.748904 0 0 -0.6202,-0.30495 0.61815459,0.30907729 52.748904 0 0 0.12815,0.67912 0.61815459,0.30907729 52.748904 0 0 0.6202,0.30497 0.61815459,0.30907729 52.748904 0 0 -0.12815,-0.67914 z" /><path
        id="ellipse27775"
        style="fill:#faf9ed;stroke-width:0.284916;stroke-linecap:round;stroke-linejoin:round"
        d="m 274.29943,227.67131 a 0.61815453,0.30907726 67.748902 0 0 -0.52013,-0.45509 0.61815453,0.30907726 67.748902 0 0 -0.052,0.68916 0.61815453,0.30907726 67.748902 0 0 0.52014,0.45508 0.61815453,0.30907726 67.748902 0 0 0.052,-0.68915 z" /><path
        id="ellipse27777"
        style="fill:#faf9ed;stroke-width:0.284916;stroke-linecap:round;stroke-linejoin:round"
        d="m 273.91076,227.85712 a 0.61815453,0.30907726 82.748903 0 0 -0.38462,-0.5742 0.61815453,0.30907726 82.748903 0 0 -0.22859,0.65222 0.61815453,0.30907726 82.748903 0 0 0.38463,0.5742 0.61815453,0.30907726 82.748903 0 0 0.22858,-0.65222 z" /><path
        id="ellipse27779"
        style="fill:#faf9ed;stroke-width:0.284916;stroke-linecap:round;stroke-linejoin:round"
        d="m 273.05766,227.90248 a 0.30907732,0.61815464 22.748903 0 0 -0.046,-0.68959 0.30907732,0.61815464 22.748903 0 0 -0.52408,0.45056 0.30907732,0.61815464 22.748903 0 0 0.046,0.68958 0.30907732,0.61815464 22.748903 0 0 0.52406,-0.45055 z" /><path
        id="ellipse27781"
        style="fill:#faf9ed;stroke-width:0.284916;stroke-linecap:round;stroke-linejoin:round"
        d="m 273.48717,227.93596 a 0.30907732,0.61815464 7.7489025 0 0 -0.22291,-0.65418 0.30907732,0.61815464 7.7489025 0 0 -0.3896,0.57083 0.30907732,0.61815464 7.7489025 0 0 0.22291,0.65419 0.30907732,0.61815464 7.7489025 0 0 0.3896,-0.57084 z" /><path
        id="ellipse27783"
        style="fill:#faf9ed;stroke-width:0.284916;stroke-linecap:round;stroke-linejoin:round"
        d="m 272.6515,227.759 a 0.30907729,0.61815459 37.748901 0 0 0.13404,-0.67799 0.30907729,0.61815459 37.748901 0 0 -0.62282,0.29956 0.30907729,0.61815459 37.748901 0 0 -0.13405,0.67799 0.30907729,0.61815459 37.748901 0 0 0.62283,-0.29956 z" /><path
        id="ellipse27785"
        style="fill:#faf9ed;stroke-width:0.284916;stroke-linecap:round;stroke-linejoin:round"
        d="m 272.29618,227.51527 a 0.30907729,0.61815459 52.748904 0 0 0.30496,-0.62019 0.30907729,0.61815459 52.748904 0 0 -0.67913,0.12815 0.30907729,0.61815459 52.748904 0 0 -0.30496,0.62019 0.30907729,0.61815459 52.748904 0 0 0.67913,-0.12815 z" /><path
        id="ellipse27787"
        style="fill:#faf9ed;stroke-width:0.284916;stroke-linecap:round;stroke-linejoin:round"
        d="m 272.01618,227.18791 a 0.30907726,0.61815453 67.748902 0 0 0.45508,-0.52013 0.30907726,0.61815453 67.748902 0 0 -0.68915,-0.052 0.30907726,0.61815453 67.748902 0 0 -0.4551,0.52014 0.30907726,0.61815453 67.748902 0 0 0.68917,0.052 z" /><path
        id="ellipse27789"
        style="fill:#faf9ed;stroke-width:0.284916;stroke-linecap:round;stroke-linejoin:round"
        d="m 271.75153,226.37563 a 0.61815464,0.30907732 7.7489025 0 0 0.65419,-0.22291 0.61815464,0.30907732 7.7489025 0 0 -0.57085,-0.3896 0.61815464,0.30907732 7.7489025 0 0 -0.65418,0.22291 0.61815464,0.30907732 7.7489025 0 0 0.57084,0.3896 z" /><path
        id="ellipse27791"
        style="fill:#faf9ed;stroke-width:0.284916;stroke-linecap:round;stroke-linejoin:round"
        d="m 271.83037,226.79916 a 0.30907726,0.61815453 82.748903 0 0 0.5742,-0.38462 0.30907726,0.61815453 82.748903 0 0 -0.65222,-0.22859 0.30907726,0.61815453 82.748903 0 0 -0.5742,0.38464 0.30907726,0.61815453 82.748903 0 0 0.65222,0.22857 z" /><path
        id="ellipse27793"
        style="fill:#faf9ed;stroke-width:0.284916;stroke-linecap:round;stroke-linejoin:round"
        d="m 271.9285,225.53987 a 0.61815459,0.30907729 37.748901 0 0 0.67799,0.13404 0.61815459,0.30907729 37.748901 0 0 -0.29955,-0.62282 0.61815459,0.30907729 37.748901 0 0 -0.67799,-0.13404 0.61815459,0.30907729 37.748901 0 0 0.29955,0.62282 z" /><path
        id="ellipse27795"
        style="fill:#faf9ed;stroke-width:0.284916;stroke-linecap:round;stroke-linejoin:round"
        d="m 271.78497,225.9461 a 0.61815464,0.30907732 22.748903 0 0 0.68959,-0.046 0.61815464,0.30907732 22.748903 0 0 -0.45055,-0.52406 0.61815464,0.30907732 22.748903 0 0 -0.68958,0.046 0.61815464,0.30907732 22.748903 0 0 0.45054,0.52407 z" /><path
        id="ellipse27797"
        style="fill:#faf9ed;stroke-width:0.284916;stroke-linecap:round;stroke-linejoin:round"
        d="m 272.17222,225.18466 a 0.61815459,0.30907729 52.748904 0 0 0.6202,0.30496 0.61815459,0.30907729 52.748904 0 0 -0.12815,-0.67913 0.61815459,0.30907729 52.748904 0 0 -0.6202,-0.30496 0.61815459,0.30907729 52.748904 0 0 0.12815,0.67913 z" /><path
        id="ellipse27799"
        style="fill:#faf9ed;stroke-width:0.284916;stroke-linecap:round;stroke-linejoin:round"
        d="m 272.49959,224.9046 a 0.61815453,0.30907726 67.748902 0 0 0.52014,0.45508 0.61815453,0.30907726 67.748902 0 0 0.052,-0.68915 0.61815453,0.30907726 67.748902 0 0 -0.52013,-0.4551 0.61815453,0.30907726 67.748902 0 0 -0.052,0.68917 z" /><path
        id="ellipse27801"
        style="fill:#faf9ed;stroke-width:0.284916;stroke-linecap:round;stroke-linejoin:round"
        d="m 272.88831,224.71879 a 0.61815453,0.30907726 82.748903 0 0 0.38464,0.57421 0.61815453,0.30907726 82.748903 0 0 0.22858,-0.65223 0.61815453,0.30907726 82.748903 0 0 -0.38463,-0.5742 0.61815453,0.30907726 82.748903 0 0 -0.22859,0.65222 z" /><path
        id="ellipse27803"
        style="fill:#faf9ed;stroke-width:0.284916;stroke-linecap:round;stroke-linejoin:round"
        d="m 273.31182,224.63996 a 0.30907732,0.61815464 7.7489025 0 0 0.22291,0.65418 0.30907732,0.61815464 7.7489025 0 0 0.3896,-0.57083 0.30907732,0.61815464 7.7489025 0 0 -0.22291,-0.65419 0.30907732,0.61815464 7.7489025 0 0 -0.3896,0.57084 z" /><path
        id="ellipse27805"
        style="fill:#faf9ed;stroke-width:0.284916;stroke-linecap:round;stroke-linejoin:round"
        d="m 273.74135,224.67342 a 0.30907732,0.61815464 22.748903 0 0 0.046,0.68959 0.30907732,0.61815464 22.748903 0 0 0.52406,-0.45055 0.30907732,0.61815464 22.748903 0 0 -0.046,-0.68959 0.30907732,0.61815464 22.748903 0 0 -0.52407,0.45055 z" /><path
        id="ellipse27807"
        style="fill:#faf9ed;stroke-width:0.284916;stroke-linecap:round;stroke-linejoin:round"
        d="m 274.50282,225.06065 a 0.30907729,0.61815459 52.748904 0 0 -0.30495,0.6202 0.30907729,0.61815459 52.748904 0 0 0.67913,-0.12815 0.30907729,0.61815459 52.748904 0 0 0.30496,-0.6202 0.30907729,0.61815459 52.748904 0 0 -0.67914,0.12815 z" /><path
        id="ellipse27809"
        style="fill:#faf9ed;stroke-width:0.284916;stroke-linecap:round;stroke-linejoin:round"
        d="m 274.14763,224.81692 a 0.30907729,0.61815459 37.748901 0 0 -0.13405,0.67799 0.30907729,0.61815459 37.748901 0 0 0.62283,-0.29955 0.30907729,0.61815459 37.748901 0 0 0.13404,-0.678 0.30907729,0.61815459 37.748901 0 0 -0.62282,0.29956 z" /><path
        id="ellipse27811"
        style="fill:#faf9ed;stroke-width:0.284916;stroke-linecap:round;stroke-linejoin:round"
        d="m 274.14763,224.81692 a 0.30907729,0.61815459 37.748901 0 0 -0.13405,0.67799 0.30907729,0.61815459 37.748901 0 0 0.62283,-0.29955 0.30907729,0.61815459 37.748901 0 0 0.13404,-0.678 0.30907729,0.61815459 37.748901 0 0 -0.62282,0.29956 z" /><path
        style="fill:none;fill-opacity:1;stroke:#9cdf8e;stroke-width:0.711089;stroke-linecap:round;stroke-linejoin:round;stroke-dasharray:none;stroke-opacity:0.996078"
        d="m 246.68885,238.25444 c 0.79005,1.06432 1.58003,2.12854 2.12973,2.91849 0.54971,0.78994 0.85916,1.3056 1.27343,1.77171 0.41426,0.46612 0.93326,0.8827 1.4522,1.29922"
        id="path27813" /><path
        id="path27815"
        style="fill:#ffb3b3;fill-opacity:1;stroke:none;stroke-width:1.57011;stroke-linecap:round;stroke-linejoin:round;stroke-dasharray:none;stroke-opacity:1;paint-order:markers fill stroke;stop-color:#000000"
        d="m 245.50304,234.29463 a 2.1078003,0.83387799 76.593808 0 0 -0.45424,1.00355 2.0821014,0.84417044 48.369627 0 0 -1.34355,-0.34748 2.0821014,0.84417044 48.369627 0 0 0.33806,1.54931 2.0289113,0.86630113 18.470539 0 0 -1.18329,0.41103 2.0289113,0.86630113 18.470539 0 0 1.70077,1.45983 2.0289113,0.86630113 18.470539 0 0 2.07471,-0.058 2.0289113,0.86630113 18.470539 0 0 0.002,-0.002 2.1078003,0.83387799 76.593808 0 0 0.16545,-2.15847 2.1078003,0.83387799 76.593808 0 0 -1.29986,-1.85759 z" /><path
        style="fill:none;fill-opacity:1;stroke:#92c68f;stroke-width:0.635084;stroke-linecap:round;stroke-linejoin:round;stroke-dasharray:none;stroke-opacity:1"
        d="m 284.21162,241.35433 c -0.73177,0.93057 -1.46346,1.86104 -1.97385,2.55263 -0.51039,0.69159 -0.79947,1.14425 -1.18088,1.5501 -0.38142,0.40584 -0.85512,0.76486 -1.32875,1.12383"
        id="path27817" /><path
        id="path27819"
        style="fill:#ffeb81;fill-opacity:1;stroke:none;stroke-width:1.40229;stroke-linecap:round;stroke-linejoin:round;stroke-dasharray:none;stroke-opacity:1;paint-order:markers fill stroke;stop-color:#000000"
        d="m 285.36867,237.84909 a 0.7447475,1.8825043 15 0 0 -1.20649,1.62561 0.7447475,1.8825043 15 0 0 0.10114,1.93837 0.77370501,1.8120474 73.123269 0 0 1.84471,0.0984 0.77370501,1.8120474 73.123269 0 0 1.5553,-1.26141 0.77370501,1.8120474 73.123269 0 0 -1.04632,-0.39584 0.75393975,1.8595522 43.224181 0 0 0.34047,-1.37526 0.75393975,1.8595522 43.224181 0 0 -1.2075,0.27646 0.7447475,1.8825043 15 0 0 -0.38136,-0.90633 z" /><path
        style="fill:none;fill-opacity:1;stroke:#c8f0ac;stroke-width:0.82053;stroke-linecap:round;stroke-linejoin:round;stroke-dasharray:none;stroke-opacity:1"
        d="m 286.44261,226.43976 c -2.45359,2.31765 -4.9069,4.63504 -6.70817,6.94432 -1.80127,2.30928 -2.9506,4.61033 -4.09978,6.9111"
        id="path27821" /><path
        id="path27823"
        style="fill:#94e299;fill-opacity:1;stroke:none;stroke-width:0.32291;stroke-linecap:round;stroke-linejoin:round"
        d="m 282.89549,227.49672 c 0.11963,0.91699 0.99788,1.55848 0.99788,1.55848 0,0 0.68438,-0.84527 0.56483,-1.76225 -0.11964,-0.91699 -0.99787,-1.55847 -0.99787,-1.55847 0,0 -0.68441,0.84526 -0.56484,1.76224 z" /><path
        id="path27825"
        style="fill:#94e299;fill-opacity:1;stroke:none;stroke-width:0.32291;stroke-linecap:round;stroke-linejoin:round"
        d="m 285.36394,228.03206 c -0.91698,0.11964 -1.55847,0.99787 -1.55847,0.99787 0,0 0.84525,0.68438 1.76225,0.56483 0.91698,-0.11964 1.55846,-0.99786 1.55846,-0.99786 0,0 -0.84525,-0.68441 -1.76224,-0.56484 z" /><path
        id="path27827"
        style="fill:#94e299;fill-opacity:1;stroke:none;stroke-width:0.32291;stroke-linecap:round;stroke-linejoin:round"
        d="m 281.07206,229.49663 c 0.11964,0.91699 0.99787,1.55848 0.99787,1.55848 0,0 0.68438,-0.84527 0.56482,-1.76225 -0.11964,-0.91699 -0.99786,-1.55847 -0.99786,-1.55847 0,0 -0.6844,0.84526 -0.56483,1.76224 z" /><path
        id="path27829"
        style="fill:#94e299;fill-opacity:1;stroke:none;stroke-width:0.32291;stroke-linecap:round;stroke-linejoin:round"
        d="m 283.54049,230.03196 c -0.91699,0.11964 -1.55848,0.99788 -1.55848,0.99788 0,0 0.84526,0.68439 1.76226,0.56482 0.91699,-0.11963 1.55846,-0.99786 1.55846,-0.99786 0,0 -0.84526,-0.6844 -1.76224,-0.56484 z" /><path
        id="path27831"
        style="fill:#94e299;fill-opacity:1;stroke:none;stroke-width:0.32291;stroke-linecap:round;stroke-linejoin:round"
        d="m 279.18979,231.93769 c 0.11964,0.917 0.99789,1.55848 0.99789,1.55848 0,0 0.68437,-0.84526 0.5648,-1.76225 -0.11964,-0.91699 -0.99785,-1.55847 -0.99785,-1.55847 0,0 -0.68439,0.84526 -0.56484,1.76224 z" /><path
        id="path27833"
        style="fill:#94e299;fill-opacity:1;stroke:none;stroke-width:0.32291;stroke-linecap:round;stroke-linejoin:round"
        d="m 281.40583,232.31528 c -0.91698,0.11963 -1.55847,0.99787 -1.55847,0.99787 0,0 0.84527,0.68439 1.76224,0.56482 0.91699,-0.11963 1.55847,-0.99785 1.55847,-0.99785 0,0 -0.84526,-0.68442 -1.76224,-0.56484 z" /><path
        id="path27835"
        style="fill:#94e299;fill-opacity:1;stroke:none;stroke-width:0.32291;stroke-linecap:round;stroke-linejoin:round"
        d="m 277.03918,234.24192 c 0.11963,0.91699 0.99787,1.55847 0.99787,1.55847 0,0 0.68438,-0.84525 0.56482,-1.76224 -0.11963,-0.91699 -0.99785,-1.55846 -0.99785,-1.55846 0,0 -0.68442,0.84525 -0.56484,1.76223 z" /><path
        id="path27837"
        style="fill:#94e299;fill-opacity:1;stroke:none;stroke-width:0.32291;stroke-linecap:round;stroke-linejoin:round"
        d="m 279.50762,234.77726 c -0.91698,0.11963 -1.55846,0.99787 -1.55846,0.99787 0,0 0.84525,0.68439 1.76224,0.56482 0.91698,-0.11963 1.55846,-0.99785 1.55846,-0.99785 0,0 -0.84525,-0.68442 -1.76224,-0.56484 z" /><path
        fill="#ff0066"
        d="m 271.97133,233.09231 c 3.71889,2.47926 7.20716,5.88105 8.82157,10.32065 1.58557,4.41078 1.29728,9.8594 -1.18197,13.95305 -2.47927,4.12251 -7.12068,6.89006 -11.50264,7.09186 -4.41078,0.17297 -8.5621,-2.19097 -13.29001,-3.63241 -4.75672,-1.44143 -10.0612,-1.93152 -12.10803,-4.69908 -2.04683,-2.79636 -0.83603,-7.81254 1.44144,-11.24316 2.30628,-3.43061 5.65042,-5.24681 8.53327,-7.87022 2.88288,-2.59458 5.24682,-6.02518 8.41798,-6.94771 3.17114,-0.95133 7.14949,0.57658 10.86839,3.02702 z"
        id="path27839"
        style="display:inline;fill:#9acab0;fill-opacity:1;stroke-width:0.288286" /><path
        fill="#ff0066"
        d="m 270.81169,234.67951 c 3.2982,2.1988 6.39188,5.21576 7.82366,9.15315 1.40621,3.91182 1.15052,8.74408 -1.04828,12.37466 -2.1988,3.65615 -6.31516,6.11063 -10.20143,6.2896 -3.91182,0.1534 -7.59353,-1.94313 -11.7866,-3.2215 -4.21864,-1.27837 -8.92305,-1.71302 -10.73834,-4.16751 -1.81529,-2.48003 -0.74146,-6.92877 1.27838,-9.97131 2.04539,-3.04252 5.01122,-4.65327 7.56796,-6.97991 2.55676,-2.30108 4.65329,-5.34361 7.46571,-6.16177 2.81242,-0.84372 6.34073,0.51135 9.63894,2.68459 z"
        id="path27841"
        style="display:inline;fill:#e3f0f0;fill-opacity:1;stroke-width:0.255675" /><path
        style="fill:none;fill-opacity:1;stroke:#97c8ae;stroke-width:1.03472;stroke-linecap:round;stroke-linejoin:round;stroke-dasharray:none;stroke-opacity:1"
        d="m 271.30543,245.75555 c -0.71663,-0.34432 -1.43318,-0.6886 -2.13733,-0.7049 -0.70414,-0.0163 -1.39587,0.2953 -2.08767,0.60694"
        id="path27843" /><path
        style="fill:none;fill-opacity:1;stroke:#97c8ae;stroke-width:1.03472;stroke-linecap:round;stroke-linejoin:round;stroke-dasharray:none;stroke-opacity:1"
        d="m 258.15497,245.75555 c -0.71661,-0.34431 -1.43316,-0.6886 -2.13731,-0.7049 -0.70415,-0.0163 -1.39587,0.2953 -2.08768,0.60694"
        id="path27845" /><path
        style="fill:none;fill-opacity:1;stroke:#97c8ae;stroke-width:1.03467;stroke-linecap:round;stroke-linejoin:round;stroke-dasharray:none;stroke-opacity:1"
        d="m 259.87216,250.44059 c 0.742,0.70876 1.77297,1.10563 2.79869,1.07735 1.0051,-0.0277 1.99312,-0.4626 2.69239,-1.1851"
        id="path27847" /></g></g></svg>