<svg width="245" height="313" viewBox="0 0 245 313" fill="none" xmlns="http://www.w3.org/2000/svg">
<path d="M67.2893 153.625C44.8552 169.478 0 161.666 0 161.666C0 161.666 5.81718 133.779 18.2893 107.829C29.5257 84.4493 70.6318 93.3264 81.2414 104.259C91.8509 115.192 89.7235 137.773 67.2893 153.625Z" fill="#C7EAC1"/>
<path d="M102.193 274.512C102.886 273.85 104.062 272.731 105.446 270.618C106.398 269.165 107.411 267.295 108.403 264.902C109.419 262.451 110.38 259.525 111.197 256.116C111.674 254.128 112.137 251.872 112.574 249.333C114.292 239.354 115.511 225.52 115.749 209.123C115.948 195.346 115.425 180.966 114.15 168.607C113.52 162.502 112.722 157.035 111.77 152.434C111.28 150.065 110.75 147.928 110.181 146.043C109.592 144.094 108.953 142.387 108.256 140.951C103.229 130.449 97.6174 121.614 91.4297 115.359C88.486 112.383 85.4715 110.052 82.4012 108.392C79.2493 106.688 76.1091 105.73 73.0252 105.462C69.7199 105.174 66.622 105.69 63.7842 106.749C60.5258 107.966 57.68 109.872 55.2763 111.976C53.7736 113.291 52.4394 114.687 51.2853 116.043C49.9923 117.562 48.814 119.179 47.7435 120.821C44.6062 125.633 42.4704 130.564 41.3237 133.121C42.8504 130.707 45.8826 126.41 49.6355 122.277C50.9087 120.875 52.2319 119.525 53.602 118.251C54.8252 117.114 56.1716 115.97 57.6292 114.917C59.9745 113.223 62.518 111.833 65.2288 111.041C67.5652 110.358 69.9746 110.135 72.4625 110.494C74.784 110.829 77.2024 111.676 79.7143 113.162C82.1744 114.618 84.6951 116.671 87.253 119.392C92.6671 125.153 97.7948 133.424 102.524 143.649C102.999 144.706 103.481 146.088 103.951 147.831C104.404 149.505 104.831 151.461 105.229 153.695C106.002 158.041 106.634 163.292 107.112 169.254C108.082 181.346 108.348 195.407 108.072 208.989C107.742 225.266 106.709 238.494 105.687 248.381C105.43 250.865 105.183 253.054 104.96 255.007C104.496 259.055 104.435 259.683 103.971 263.731C103.688 266.166 103.442 268.12 103.198 269.743C102.846 272.09 102.519 273.592 102.193 274.512Z" fill="#4A8C69"/>
<path d="M176.605 109.166C199.04 125.019 243.895 117.207 243.895 117.207C243.895 117.207 238.078 89.32 225.605 63.3695C214.369 39.9903 173.263 48.8674 162.653 59.8004C152.044 70.7334 154.171 93.3136 176.605 109.166Z" fill="#6CB18C"/>
<path d="M130.44 0V103.772" stroke="#B17B6C" stroke-width="4.88646"/>
<path d="M131.419 99.8828L20.7139 215.88" stroke="#B17B6C" stroke-width="4.88646"/>
<path d="M129.46 99.8828L240.165 215.88" stroke="#B17B6C" stroke-width="4.88646"/>
<path d="M181.332 167.725C193.692 177.578 218.405 172.723 218.405 172.723C218.405 172.723 215.2 155.389 208.328 139.259C202.137 124.728 179.49 130.245 173.645 137.041C167.8 143.836 168.972 157.871 181.332 167.725Z" fill="#C7EAC1"/>
<path d="M56.6652 203.388C44.3052 212.122 19.5923 207.819 19.5923 207.819C19.5923 207.819 22.7973 192.454 29.6688 178.157C35.8594 165.276 58.5068 170.167 64.3521 176.19C70.1974 182.214 69.0253 194.654 56.6652 203.388Z" fill="#6CB18C"/>
<path d="M75.895 269.99C76.277 269.625 76.9251 269.009 77.6876 267.844C78.2117 267.044 78.7702 266.014 79.3167 264.696C79.8762 263.345 80.4058 261.733 80.8561 259.855C81.1189 258.759 81.3737 257.517 81.6147 256.118C82.5613 250.62 83.2326 242.998 83.3636 233.964C83.4738 226.374 83.1851 218.451 82.4829 211.642C82.136 208.278 81.6961 205.266 81.1718 202.731C80.9018 201.426 80.6098 200.249 80.296 199.21C79.9717 198.137 79.6197 197.196 79.2355 196.405C76.4661 190.619 73.3743 185.751 69.9652 182.305C68.3434 180.666 66.6826 179.381 64.991 178.467C63.2544 177.528 61.5243 177 59.8253 176.852C58.0042 176.693 56.2974 176.978 54.734 177.561C52.9388 178.232 51.3708 179.282 50.0465 180.441C49.2186 181.165 48.4836 181.935 47.8477 182.682C47.1353 183.519 46.4861 184.41 45.8964 185.314C44.1679 187.965 42.9911 190.682 42.3594 192.091C43.2005 190.761 44.8711 188.394 46.9387 186.116C47.6402 185.344 48.3692 184.6 49.1241 183.899C49.798 183.272 50.5398 182.641 51.3429 182.061C52.635 181.128 54.0363 180.362 55.5299 179.926C56.8171 179.55 58.1445 179.427 59.5153 179.624C60.7943 179.809 62.1267 180.276 63.5106 181.094C64.866 181.897 66.2548 183.028 67.6641 184.527C70.6469 187.701 73.4721 192.258 76.0774 197.891C76.3394 198.474 76.6048 199.235 76.8641 200.195C77.1132 201.118 77.3488 202.195 77.5677 203.426C77.9935 205.82 78.3418 208.714 78.6053 211.998C79.1399 218.661 79.2862 226.407 79.1345 233.89C78.9526 242.858 78.3834 250.146 77.82 255.593C77.6784 256.962 77.5427 258.168 77.4196 259.244C77.1643 261.474 77.1303 261.82 76.8751 264.05C76.7188 265.392 76.5831 266.468 76.449 267.363C76.255 268.656 76.0751 269.483 75.895 269.99Z" fill="#4A8C69"/>
<path d="M141.702 230.053C141.375 229.133 141.049 227.631 140.697 225.284C140.453 223.661 140.207 221.707 139.923 219.272C139.68 217.177 139.179 212.643 138.935 210.548C138.712 208.596 138.465 206.406 138.208 203.922C137.186 194.035 136.152 180.807 135.822 164.53C135.547 150.948 135.813 136.887 136.783 124.795C137.261 118.833 137.893 113.582 138.666 109.236C139.064 107.002 139.491 105.046 139.943 103.372C140.414 101.629 140.896 100.247 141.371 99.1903C146.1 88.9647 151.228 80.694 156.642 74.9334C159.2 72.2116 161.72 70.1587 164.181 68.703C166.692 67.2165 169.111 66.37 171.432 66.0348C173.92 65.6757 176.33 65.8991 178.666 66.5817C181.377 67.3737 183.92 68.764 186.266 70.4578C187.723 71.5105 189.07 72.6553 190.293 73.7924C191.663 75.066 192.986 76.4157 194.259 77.8181C198.012 81.9514 201.044 86.2482 202.571 88.6617C201.425 86.1055 199.289 81.1738 196.151 76.3618C195.081 74.72 193.903 73.1035 192.61 71.584C191.455 70.2278 190.121 68.8317 188.619 67.5166C186.215 65.413 183.369 63.5069 180.111 62.2903C177.273 61.2307 174.175 60.7148 170.87 61.0028C167.786 61.2714 164.646 62.2294 161.494 63.9335C158.423 65.5934 155.409 67.9243 152.465 70.9002C146.277 77.1553 140.666 85.9899 135.639 96.4924C134.942 97.9284 134.303 99.6354 133.714 101.584C133.145 103.469 132.615 105.606 132.125 107.975C131.173 112.576 130.375 118.043 129.745 124.148C128.47 136.507 127.946 150.887 128.146 164.664C128.384 181.061 129.603 194.895 131.321 204.874C131.758 207.413 132.221 209.669 132.698 211.657C133.515 215.066 134.476 217.992 135.492 220.443C136.484 222.836 137.497 224.706 138.449 226.159C139.833 228.272 141.009 229.391 141.702 230.053Z" fill="#4A8C69"/>
<path d="M162.102 242.863C161.932 242.302 161.771 241.386 161.596 239.94C161.474 238.938 161.352 237.732 161.207 236.219C161.059 234.682 160.893 232.863 160.69 230.795C160.571 229.578 160.438 228.216 160.299 226.668C159.745 220.506 159.178 212.279 158.994 202.143C158.841 193.689 158.983 184.936 159.514 177.404C159.776 173.692 160.123 170.417 160.548 167.703C160.767 166.308 161.004 165.084 161.254 164.034C161.515 162.941 161.784 162.069 162.051 161.398C164.66 155.029 167.489 149.879 170.473 146.297C171.882 144.605 173.265 143.337 174.605 142.442C175.972 141.53 177.27 141.022 178.512 140.82C179.843 140.605 181.128 140.74 182.395 141.159C183.868 141.647 185.264 142.508 186.564 143.568C187.37 144.226 188.116 144.942 188.796 145.654C189.556 146.452 190.293 147.299 191.002 148.18C193.093 150.773 194.788 153.471 195.637 154.979C195.014 153.397 193.862 150.358 192.156 147.392C191.574 146.38 190.933 145.384 190.226 144.446C189.596 143.608 188.865 142.745 188.04 141.931C186.723 140.631 185.151 139.443 183.335 138.682C181.751 138.018 180.008 137.693 178.141 137.881C176.401 138.056 174.64 138.668 172.887 139.739C171.18 140.781 169.513 142.238 167.892 144.087C164.483 147.974 161.396 153.455 158.63 159.971C158.251 160.849 157.902 161.897 157.579 163.099C157.267 164.261 156.976 165.581 156.706 167.047C156.181 169.894 155.74 173.281 155.391 177.069C154.686 184.735 154.393 193.661 154.501 202.212C154.631 212.388 155.304 220.974 156.26 227.163C156.504 228.739 156.761 230.138 157.028 231.372C157.484 233.487 158.024 235.305 158.595 236.831C159.153 238.321 159.724 239.489 160.261 240.4C161.043 241.726 161.71 242.44 162.102 242.863L162.102 242.863Z" fill="#4A8C69"/>
<path d="M16.6016 212.723C21.7695 240.568 47.5837 282.665 70.0526 296.415C105.062 317.84 155.717 317.84 190.726 296.415C213.567 282.438 239.652 241.794 244.277 212.723H16.6016Z" fill="#C1DCEA"/>
</svg>
